<svg id="Layer_1" data-name="Layer 1" xmlns="http://www.w3.org/2000/svg" viewBox="0 0 415.68 111.36"><defs><style>.cls-1{fill:#76af21;}.cls-2{fill:#353535;}.cls-3{fill:#fff;}</style></defs><title>Artboard 7 copy</title><path class="cls-1" d="M138.81,76.38c-1.59-.93-2.38-2-2.38-3.38a9.79,9.79,0,0,1,.46-2.82,11.74,11.74,0,0,1,1.32-2.88A8.26,8.26,0,0,0,141.16,69a10.87,10.87,0,0,0,3.67.64c1.9,0,3.25-.47,4.06-1.42a6.26,6.26,0,0,0,1.21-4.13,9,9,0,0,0-.68-3.49,20.47,20.47,0,0,0-2.53-4.13l-6.48-8.62a20.78,20.78,0,0,1-3.2-5.48,14.82,14.82,0,0,1-.86-5,10.17,10.17,0,0,1,3.28-7.94q3.27-3,9.4-3c3.46,0,5.94.34,7.44,1a3.21,3.21,0,0,1,2.24,3,6.51,6.51,0,0,1-1.85,4.41,7.47,7.47,0,0,0-2.49-1,15.7,15.7,0,0,0-3.71-.46,8,8,0,0,0-4.2.93A3,3,0,0,0,145,37.18a7.59,7.59,0,0,0,.57,3,17,17,0,0,0,2.06,3.35l6.84,8.76a20.71,20.71,0,0,1,3.38,5.8,17.92,17.92,0,0,1,.89,5.8q0,6.2-2.92,10t-10,3.85A14.06,14.06,0,0,1,138.81,76.38Z"/><path class="cls-1" d="M163.06,43.09a32.63,32.63,0,0,1,11-2.35q5.55,0,7.9,2c1.57,1.33,2.35,3.72,2.35,7.19v25.7a1.13,1.13,0,0,1-.39,1,6.59,6.59,0,0,1-2.42.32c-1.36,0-3.15.07-5.38.07V52.42a10.83,10.83,0,0,0-.46-3.92,1.87,1.87,0,0,0-1.89-1,5,5,0,0,0-2.85.85V75.63a1.13,1.13,0,0,1-.39,1,6.12,6.12,0,0,1-2.31.32c-1.28,0-3,.07-5.2.07Z"/><path class="cls-1" d="M194,77a6.62,6.62,0,0,1-3.52-3.24,14.92,14.92,0,0,1-1.35-7.08q0-6.69,2.27-9.22a7.71,7.71,0,0,1,6-2.53,13.48,13.48,0,0,1,2.38.25,5.89,5.89,0,0,1,2.17.82V51.07a2.76,2.76,0,0,0-.67-2.07,3.4,3.4,0,0,0-2.32-.64,25,25,0,0,0-4.41.43,24.59,24.59,0,0,0-4.2,1.07,9.82,9.82,0,0,1-1.07-4.56,3.78,3.78,0,0,1,.28-1.42,2.58,2.58,0,0,1,.72-1.07,11,11,0,0,1,3.84-1.39,30.25,30.25,0,0,1,6.77-.68c3.27,0,5.58.66,6.94,2s2,3.55,2,6.73v3.35q0,17.44-.35,22.71-3.84,2.28-10.25,2.28A15.58,15.58,0,0,1,194,77Zm7.8-6.4c.09-1.1.14-4.18.14-9.26a2.73,2.73,0,0,0-1.92-.64,2,2,0,0,0-1.92,1.24,11,11,0,0,0-.64,4.53,10,10,0,0,0,.49,3.73,1.86,1.86,0,0,0,1.86,1.11A2.57,2.57,0,0,0,201.75,70.58Z"/><path class="cls-1" d="M216.2,90.37a3.53,3.53,0,0,1-.86-2.78V43.52a18.13,18.13,0,0,1,4.88-2,21.84,21.84,0,0,1,5.66-.75q5.63,0,8.54,3.14t2.92,11.32a62.48,62.48,0,0,1-1.21,14c-.81,3.33-1.89,5.58-3.24,6.77A7.17,7.17,0,0,1,228,77.77a7.38,7.38,0,0,1-4.78-1.36v14a11.48,11.48,0,0,1-4.05.64A4.78,4.78,0,0,1,216.2,90.37Zm10.71-20.61a12.4,12.4,0,0,0,1.14-4.38,75.74,75.74,0,0,0,.46-9.68,30.32,30.32,0,0,0-.32-5.17,4.56,4.56,0,0,0-1-2.38,2.4,2.4,0,0,0-1.78-.64,3.51,3.51,0,0,0-2.21.85V69.44a2.72,2.72,0,0,0,2.07,1.35A1.91,1.91,0,0,0,226.91,69.76Z"/><path class="cls-1" d="M243.19,90.37a3.53,3.53,0,0,1-.86-2.78V43.52a18.13,18.13,0,0,1,4.88-2,21.84,21.84,0,0,1,5.66-.75q5.63,0,8.54,3.14t2.92,11.32a62.48,62.48,0,0,1-1.21,14c-.81,3.33-1.88,5.58-3.24,6.77A7.17,7.17,0,0,1,255,77.77a7.33,7.33,0,0,1-4.77-1.36v14a11.53,11.53,0,0,1-4.06.64A4.78,4.78,0,0,1,243.19,90.37ZM253.9,69.76A12.4,12.4,0,0,0,255,65.38a75.74,75.74,0,0,0,.46-9.68,30.32,30.32,0,0,0-.32-5.17,4.56,4.56,0,0,0-1-2.38,2.4,2.4,0,0,0-1.78-.64,3.47,3.47,0,0,0-2.2.85V69.44a2.69,2.69,0,0,0,2.06,1.35A1.91,1.91,0,0,0,253.9,69.76Z"/><path class="cls-1" d="M267.16,89.87a3,3,0,0,1-1.42-2.63A9.89,9.89,0,0,1,266,85a8,8,0,0,1,.71-2,5.5,5.5,0,0,0,2,.86,11,11,0,0,0,2.85.35,2.67,2.67,0,0,0,2.31-1.31,11.36,11.36,0,0,0,1.32-4.67l-7.83-34.67a8.77,8.77,0,0,1-.14-1,.78.78,0,0,1,.6-.78,9.62,9.62,0,0,1,2.49-.25c1.26,0,2.86,0,4.81,0l2.13,12.45q.64,3.86,1.14,8.41c.34,3,.55,5,.65,5.91,0-.91.22-2.86.53-5.88s.63-5.82,1-8.44L282,43.66a2.5,2.5,0,0,1,.61-1.6,3.63,3.63,0,0,1,1.92-.5c1-.07,2.93-.1,5.88-.1l-8,37.23A32.71,32.71,0,0,1,280.16,86a8.29,8.29,0,0,1-3.1,3.66,9.15,9.15,0,0,1-4.77,1.11Q268.58,90.8,267.16,89.87Z"/><path class="cls-2" d="M293.4,73.57a9.34,9.34,0,0,1,1.28-4.42A13,13,0,0,0,301,70.72a4,4,0,0,0,2.77-.82,2.83,2.83,0,0,0,.93-2.24,5.92,5.92,0,0,0-1.64-4l-6.19-6.55a12.65,12.65,0,0,1-2.63-3.85,9.41,9.41,0,0,1-.86-3.7,8.06,8.06,0,0,1,2.78-6.44q2.77-2.39,9-2.39,5.26,0,7,1.32a3.9,3.9,0,0,1,1.75,3.17,5.57,5.57,0,0,1-.4,2,5.63,5.63,0,0,1-1.1,1.81,12.93,12.93,0,0,0-6.19-1.49c-2.28,0-3.42.73-3.42,2.2a3.16,3.16,0,0,0,.42,1.5,10.58,10.58,0,0,0,1.71,2.06l5.27,5.34A16.29,16.29,0,0,1,313,62.92a12.69,12.69,0,0,1,.74,4.59,9.36,9.36,0,0,1-3.2,7.52c-2.14,1.82-5,2.74-8.69,2.74Q293.4,77.77,293.4,73.57Z"/><path class="cls-2" d="M338,68.08a18.51,18.51,0,0,1,.64,5.27q0,2.07-2.88,3.24a19.32,19.32,0,0,1-7.23,1.18,9.71,9.71,0,0,1-8.18-3.67q-2.85-3.66-2.85-13.14,0-8.12,1.67-12.6t4.38-6A12.74,12.74,0,0,1,330,40.74q9.1,0,9.11,11.61a42.4,42.4,0,0,1-1,10.11,71.94,71.94,0,0,1-12.39,1A10.73,10.73,0,0,0,327,68.58a3.86,3.86,0,0,0,3.49,1.5A17.56,17.56,0,0,0,338,68.08ZM326.66,49.93a28.6,28.6,0,0,0-.89,7.33,14.47,14.47,0,0,0,5.34-.64,13.56,13.56,0,0,0,.35-3.7,11.66,11.66,0,0,0-.5-4.31,1.92,1.92,0,0,0-1.92-1C328,47.58,327.16,48.36,326.66,49.93Z"/><path class="cls-2" d="M344.22,43.09a32.63,32.63,0,0,1,11-2.35q5.55,0,7.9,2c1.57,1.33,2.35,3.72,2.35,7.19v25.7a1.13,1.13,0,0,1-.39,1,6.59,6.59,0,0,1-2.42.32c-1.36,0-3.15.07-5.38.07V52.42a10.83,10.83,0,0,0-.46-3.92,1.87,1.87,0,0,0-1.89-1,5,5,0,0,0-2.85.85V75.63a1.13,1.13,0,0,1-.39,1,6.12,6.12,0,0,1-2.31.32c-1.28,0-3,.07-5.2.07Z"/><path class="cls-2" d="M369.93,73.57a9.34,9.34,0,0,1,1.28-4.42,13,13,0,0,0,6.27,1.57,4,4,0,0,0,2.77-.82,2.83,2.83,0,0,0,.93-2.24,5.92,5.92,0,0,0-1.64-4l-6.19-6.55a12.87,12.87,0,0,1-2.64-3.85,9.39,9.39,0,0,1-.85-3.7,8.06,8.06,0,0,1,2.78-6.44q2.78-2.39,9-2.39,5.26,0,7,1.32a3.9,3.9,0,0,1,1.75,3.17,5.57,5.57,0,0,1-.4,2,5.63,5.63,0,0,1-1.1,1.81,12.93,12.93,0,0,0-6.19-1.49c-2.28,0-3.42.73-3.42,2.2a3.16,3.16,0,0,0,.42,1.5,10.58,10.58,0,0,0,1.71,2.06l5.27,5.34a16,16,0,0,1,2.81,4.31,12.46,12.46,0,0,1,.75,4.59A9.39,9.39,0,0,1,387,75c-2.14,1.82-5,2.74-8.69,2.74Q369.93,77.77,369.93,73.57Z"/><path class="cls-2" d="M414.54,68.08a18.51,18.51,0,0,1,.64,5.27q0,2.07-2.88,3.24a19.32,19.32,0,0,1-7.23,1.18,9.71,9.71,0,0,1-8.18-3.67Q394,70.44,394,61q0-8.12,1.67-12.6c1.11-3,2.58-5,4.38-6a12.74,12.74,0,0,1,6.48-1.57q9.1,0,9.11,11.61a41.82,41.82,0,0,1-1,10.11,71.7,71.7,0,0,1-12.38,1,10.73,10.73,0,0,0,1.21,5.12,3.86,3.86,0,0,0,3.49,1.5A17.56,17.56,0,0,0,414.54,68.08ZM403.19,49.93a28.6,28.6,0,0,0-.89,7.33,14.51,14.51,0,0,0,5.34-.64,13.56,13.56,0,0,0,.35-3.7,11.66,11.66,0,0,0-.5-4.31,1.92,1.92,0,0,0-1.92-1C404.48,47.58,403.68,48.36,403.19,49.93Z"/><circle class="cls-1" cx="55.68" cy="55.68" r="55.68"/><circle class="cls-3" cx="55.68" cy="55.68" r="42.44"/><path class="cls-2" d="M60.57,52.53,77,41.92a3.74,3.74,0,0,0,.8-5.61,29.44,29.44,0,1,0,0,38.74,3.75,3.75,0,0,0-.8-5.61L60.57,58.83A3.75,3.75,0,0,1,60.57,52.53Z"/></svg>